<svg width="78" height="125" viewBox="0 0 78 125" fill="none" xmlns="http://www.w3.org/2000/svg">
<path d="M3.67125 5H10.1513C12.3379 5 13.9779 5.58667 15.0713 6.76C16.1646 7.93333 16.7113 9.65333 16.7113 11.92V14.68C16.7113 16.9467 16.1646 18.6667 15.0713 19.84C13.9779 21.0133 12.3379 21.6 10.1513 21.6H8.07125V33H3.67125V5ZM10.1513 17.6C10.8713 17.6 11.4046 17.4 11.7513 17C12.1246 16.6 12.3112 15.92 12.3112 14.96V11.64C12.3112 10.68 12.1246 10 11.7513 9.6C11.4046 9.2 10.8713 9 10.1513 9H8.07125V17.6H10.1513ZM19.1009 5H25.6209C27.8876 5 29.5409 5.53333 30.5809 6.6C31.6209 7.64 32.1409 9.25333 32.1409 11.44V13.16C32.1409 16.0667 31.1809 17.9067 29.2609 18.68V18.76C30.3276 19.08 31.0743 19.7333 31.5009 20.72C31.9543 21.7067 32.1809 23.0267 32.1809 24.68V29.6C32.1809 30.4 32.2076 31.0533 32.2609 31.56C32.3143 32.04 32.4476 32.52 32.6609 33H28.1809C28.0209 32.5467 27.9143 32.12 27.8609 31.72C27.8076 31.32 27.7809 30.6 27.7809 29.56V24.44C27.7809 23.16 27.5676 22.2667 27.1409 21.76C26.7409 21.2533 26.0343 21 25.0209 21H23.5009V33H19.1009V5ZM25.1009 17C25.9809 17 26.6343 16.7733 27.0609 16.32C27.5143 15.8667 27.7409 15.1067 27.7409 14.04V11.88C27.7409 10.8667 27.5543 10.1333 27.1809 9.68C26.8343 9.22667 26.2743 9 25.5009 9H23.5009V17H25.1009ZM35.2338 5H47.2338V9H39.6338V16.4H45.6738V20.4H39.6338V29H47.2338V33H35.2338V5ZM55.5631 33.4C53.4298 33.4 51.8165 32.8 50.7231 31.6C49.6298 30.3733 49.0831 28.6267 49.0831 26.36V24.76H53.2431V26.68C53.2431 28.4933 54.0031 29.4 55.5231 29.4C56.2698 29.4 56.8298 29.1867 57.2031 28.76C57.6031 28.3067 57.8031 27.5867 57.8031 26.6C57.8031 25.4267 57.5365 24.4 57.0031 23.52C56.4698 22.6133 55.4831 21.5333 54.0431 20.28C52.2298 18.68 50.9631 17.24 50.2431 15.96C49.5231 14.6533 49.1631 13.1867 49.1631 11.56C49.1631 9.34667 49.7231 7.64 50.8431 6.44C51.9631 5.21333 53.5898 4.6 55.7231 4.6C57.8298 4.6 59.4165 5.21333 60.4831 6.44C61.5765 7.64 62.1231 9.37333 62.1231 11.64V12.8H57.9631V11.36C57.9631 10.4 57.7765 9.70667 57.4031 9.28C57.0298 8.82667 56.4831 8.6 55.7631 8.6C54.2965 8.6 53.5631 9.49333 53.5631 11.28C53.5631 12.2933 53.8298 13.24 54.3631 14.12C54.9231 15 55.9231 16.0667 57.3631 17.32C59.2031 18.92 60.4698 20.3733 61.1631 21.68C61.8565 22.9867 62.2031 24.52 62.2031 26.28C62.2031 28.5733 61.6298 30.3333 60.4831 31.56C59.3631 32.7867 57.7231 33.4 55.5631 33.4ZM70.4459 33.4C68.3126 33.4 66.6993 32.8 65.6059 31.6C64.5126 30.3733 63.9659 28.6267 63.9659 26.36V24.76H68.1259V26.68C68.1259 28.4933 68.8859 29.4 70.4059 29.4C71.1526 29.4 71.7126 29.1867 72.0859 28.76C72.4859 28.3067 72.6859 27.5867 72.6859 26.6C72.6859 25.4267 72.4193 24.4 71.8859 23.52C71.3526 22.6133 70.3659 21.5333 68.9259 20.28C67.1126 18.68 65.8459 17.24 65.1259 15.96C64.4059 14.6533 64.0459 13.1867 64.0459 11.56C64.0459 9.34667 64.6059 7.64 65.7259 6.44C66.8459 5.21333 68.4726 4.6 70.6059 4.6C72.7126 4.6 74.2993 5.21333 75.3659 6.44C76.4593 7.64 77.0059 9.37333 77.0059 11.64V12.8H72.8459V11.36C72.8459 10.4 72.6593 9.70667 72.2859 9.28C71.9126 8.82667 71.3659 8.6 70.6459 8.6C69.1793 8.6 68.4459 9.49333 68.4459 11.28C68.4459 12.2933 68.7126 13.24 69.2459 14.12C69.8059 15 70.8059 16.0667 72.2459 17.32C74.0859 18.92 75.3526 20.3733 76.0459 21.68C76.7393 22.9867 77.0859 24.52 77.0859 26.28C77.0859 28.5733 76.5126 30.3333 75.3659 31.56C74.2459 32.7867 72.6059 33.4 70.4459 33.4Z" fill="#CEB7FF"/>
<mask id="mask0_19_13745" style="mask-type:luminance" maskUnits="userSpaceOnUse" x="0" y="52" width="73" height="73">
<path d="M64.5 122.5C67.8137 122.5 70.5 119.814 70.5 116.5V60C70.5 56.6863 67.8137 54 64.5 54H42.25C38.9363 54 36.25 56.6863 36.25 60V75.4C36.25 78.7137 33.5637 81.4 30.25 81.4H8C4.68629 81.4 2 84.0863 2 87.4V116.5C2 119.814 4.68629 122.5 8 122.5H64.5Z" stroke="white" stroke-width="4" stroke-linecap="round" stroke-linejoin="round"/>
<path d="M31.1125 95.1L24.2625 101.95L31.1125 108.8" stroke="white" stroke-width="4" stroke-linecap="round" stroke-linejoin="round"/>
<path d="M53.375 86.5375V101.95H24.2625" stroke="white" stroke-width="4" stroke-linecap="round" stroke-linejoin="round"/>
</mask>
<g mask="url(#mask0_19_13745)">
<path d="M-4.85004 47.15H77.35V129.35H-4.85004V47.15Z" fill="#CEB7FF"/>
</g>
</svg>
